<svg width="15" height="14" viewBox="0 0 15 14" fill="none" xmlns="http://www.w3.org/2000/svg">
<path d="M14.4202 9.73013H5.11555L5.58274 8.77856L13.3452 8.7645C13.6077 8.7645 13.8327 8.577 13.8796 8.31763L14.9546 2.30044C14.9827 2.14263 14.9406 1.98013 14.8374 1.85669C14.7865 1.79594 14.7229 1.747 14.6511 1.71328C14.5793 1.67955 14.5011 1.66184 14.4218 1.66138L4.5468 1.62856L4.46243 1.23169C4.4093 0.978564 4.18118 0.794189 3.9218 0.794189H1.50774C1.36146 0.794189 1.22116 0.8523 1.11773 0.955738C1.01429 1.05918 0.956177 1.19947 0.956177 1.34575C0.956177 1.49204 1.01429 1.63233 1.11773 1.73577C1.22116 1.8392 1.36146 1.89731 1.50774 1.89731H3.47493L3.84368 3.65044L4.75149 8.04575L3.58274 9.95356C3.52204 10.0355 3.48549 10.1328 3.4772 10.2344C3.46892 10.336 3.48924 10.4379 3.53586 10.5286C3.62961 10.7145 3.81868 10.8317 4.02805 10.8317H5.0093C4.80011 11.1095 4.68712 11.448 4.68743 11.7958C4.68743 12.6801 5.40618 13.3989 6.29055 13.3989C7.17493 13.3989 7.89368 12.6801 7.89368 11.7958C7.89368 11.4473 7.77805 11.1083 7.5718 10.8317H10.089C9.8798 11.1095 9.76681 11.448 9.76711 11.7958C9.76711 12.6801 10.4859 13.3989 11.3702 13.3989C12.2546 13.3989 12.9734 12.6801 12.9734 11.7958C12.9734 11.4473 12.8577 11.1083 12.6515 10.8317H14.4218C14.7249 10.8317 14.9734 10.5848 14.9734 10.2801C14.9725 10.134 14.9138 9.99416 14.8102 9.89112C14.7065 9.78808 14.5664 9.73021 14.4202 9.73013V9.73013ZM4.77649 2.71606L13.7734 2.74575L12.8921 7.68013L5.82493 7.69263L4.77649 2.71606ZM6.29055 12.2895C6.01868 12.2895 5.7968 12.0676 5.7968 11.7958C5.7968 11.5239 6.01868 11.302 6.29055 11.302C6.56243 11.302 6.7843 11.5239 6.7843 11.7958C6.7843 11.9267 6.73228 12.0523 6.63969 12.1449C6.54709 12.2375 6.4215 12.2895 6.29055 12.2895V12.2895ZM11.3702 12.2895C11.0984 12.2895 10.8765 12.0676 10.8765 11.7958C10.8765 11.5239 11.0984 11.302 11.3702 11.302C11.6421 11.302 11.864 11.5239 11.864 11.7958C11.864 11.9267 11.812 12.0523 11.7194 12.1449C11.6268 12.2375 11.5012 12.2895 11.3702 12.2895V12.2895Z" fill="white"/>
</svg>
